# Made in Blockbench 4.9.1
mtllib materials.mtl

o cuboid
v -1.5056402439024401 -0.25 -1.6250000000000009
v -1.8662347560975627 -0.25 -1.6250000000000009
v -1.8662347560975627 0.5625 -1.6250000000000009
v -1.49314024390244 0.5625 -1.6250000000000009
v -1.3574695121951237 1.375 -0.06250000000000089
v -1.3574695121951232 1.375 -0.8437500000000009
v -1.8662347560975636 1.375 -0.8437500000000009
v -1.8662347560975636 1.375 -0.06250000000000089
v -1.8662347560975636 -0.25 -0.06250000000000089
v -1.8662347560975636 -0.25 -0.8437500000000009
v -1.344969512195123 -0.25 -0.8437500000000009
v -1.3574695121951237 -0.25 -0.06250000000000089
v 3.1874999999999982 -0.25 -0.0625
v 3.1874999999999987 -0.25 -0.78125
v 3.1874999999999987 0.5625 -0.71875
v 3.1874999999999982 0.5625 -0.0625
v -2.3750000000000018 0.5625 -0.06250000000000089
v -2.3750000000000018 0.5625 -0.7812500000000009
v -2.3750000000000018 -0.25 -0.8437500000000009
v -2.3750000000000018 -0.25 -0.06250000000000089
v 3.1874999999999982 1.375 -0.0625
v 3.1874999999999987 1.375 -0.78125
v 2.136051829268291 1.375 -0.84375
v 2.136051829268291 1.375 -0.0625
v 3.051829268292681 -0.25 1.4375
v 3.051829268292681 0.5625 1.375
v 2.2717225609756078 0.5625 1.5
v 2.2717225609756078 -0.25 1.5
v 2.136051829268291 -0.25 -0.0625
v 2.136051829268291 -0.25 -0.84375
v 2.2717225609756087 -0.25 -1.625
v 2.2717225609756087 0.5625 -1.625
v 3.0518292682926815 0.5625 -1.5
v 3.0518292682926815 -0.25 -1.5625
v 1.0676448170731692 1.375 -0.84375
v 1.067644817073169 1.375 -0.0625
v -0.28058307926829373 1.375 -0.8437500000000009
v -0.2805830792682942 1.375 -0.06250000000000089
v -0.14491234756097704 -0.25 -1.6250000000000009
v -0.14491234756097704 0.5625 -1.6250000000000009
v 0.9319740853658522 0.5625 -1.625
v 0.9319740853658522 -0.25 -1.625
v -0.2805830792682942 -0.25 -0.06250000000000089
v -0.28058307926829373 -0.25 -0.8437500000000009
v 1.0676448170731692 -0.25 -0.84375
v 1.067644817073169 -0.25 -0.0625
v -0.2805830792682942 1.375 1.5
v -0.2805830792682942 0.5625 1.5
v 1.0676448170731685 0.5625 1.5
v 1.0676448170731685 1.375 1.5
v 2.2717225609756078 1.375 1.5
v 3.051829268292681 1.375 1.4375
v 3.0518292682926815 1.375 -1.5625
v 2.2717225609756087 1.375 -1.625
v 0.9319740853658522 1.375 -1.625
v -0.14491234756097704 1.375 -1.6250000000000009
v -1.49314024390244 1.375 -1.6250000000000009
v -1.8662347560975627 1.375 -1.6250000000000009
v -2.3750000000000018 1.375 -0.06250000000000089
v -2.3750000000000018 1.375 -0.7812500000000009
v -1.4931402439024408 1.375 1.4999999999999982
v -2.8662347560975636 1.375 1.4374999999999982
v -2.8662347560975636 0.5625 1.4374999999999982
v -1.4931402439024408 0.5625 1.4999999999999982
v 2.1360518292682906 -0.25 0.71875
v 1.0676448170731687 -0.25 0.71875
v 3.1874999999999982 -0.25 0.65625
v 3.1874999999999982 0.5625 0.59375
v 3.1874999999999982 1.375 0.65625
v 2.1360518292682906 1.375 0.71875
v 1.0676448170731687 1.375 0.71875
v -0.2805830792682942 1.375 0.71875
v -1.3574695121951237 1.375 0.71875
v -1.8662347560975636 1.375 0.7187499999999982
v -2.3750000000000018 0.5625 0.7187499999999982
v -2.3750000000000018 1.375 0.7187499999999982
v -2.3750000000000018 -0.25 0.7187499999999982
v -1.3574695121951237 -0.25 0.71875
v -1.8662347560975636 -0.25 0.7187499999999982
v -0.2805830792682942 -0.25 0.71875
v -3.364329268292683 1.375 -1.5625000000000009
v -3.364329268292683 0.5625 -1.5625000000000009
v -3.364329268292683 -0.25 -1.6250000000000009
v -3.2393292682926838 -0.25 1.4999999999999982
v -2.8662347560975636 -0.25 1.4999999999999982
v -3.2393292682926838 0.5625 1.4374999999999982
v -3.2393292682926838 1.375 1.4374999999999982
v -1.4931402439024408 -0.25 1.4999999999999982
v -1.4931402439024408 0.3999999999999999 0.5234374999999991
v -0.2805830792682942 0.3999999999999999 0.5234374999999991
v -0.2805830792682942 -0.25 1.5
v 1.0676448170731687 0.3999999999999999 0.71875
v 2.2717225609756078 0.3999999999999999 0.71875
v 1.0676448170731685 -0.25 1.5
vt 0.8170731707317074 0.5
vt 0.9085365853658537 0.5
vt 0.9085365853658537 0.75
vt 0.8170731707317074 0.75
vt 0.5 0.8170731707317074
vt 0.75 0.8170731707317074
vt 0.75 0.9085365853658537
vt 0.5 0.9085365853658537
vt 0.5 0.09146341463414631
vt 0.75 0.09146341463414631
vt 0.75 0.18292682926829262
vt 0.5 0.18292682926829262
vt 0.5 0.5
vt 0.75 0.5
vt 0.75 0.75
vt 0.5 0.75
vt 0.5 0.75
vt 0.25 0.75
vt 0.25 0.5
vt 0.5 0.5
vt 0.5 0
vt 0.75 0
vt 0.75 0.18902439024390238
vt 0.5 0.18902439024390238
vt 1 0.5
vt 1 0.75
vt 0.8109756097560976 0.75
vt 0.8109756097560976 0.5
vt 0.5 0.8109756097560976
vt 0.75 0.8109756097560976
vt 0.75 1
vt 0.5 1
vt 0.18902439024390244 0.5
vt 0.18902439024390244 0.75
vt 0 0.75
vt 0 0.5
vt 0.5 0.18902439024390238
vt 0.75 0.18902439024390238
vt 0.75 0.5030487804878049
vt 0.5 0.5030487804878049
vt 0.5 0.5030487804878049
vt 0.75 0.5030487804878049
vt 0.75 0.6600609756097561
vt 0.5 0.6600609756097561
vt 0.6600609756097562 0.5
vt 0.6600609756097562 0.75
vt 0.503048780487805 0.75
vt 0.503048780487805 0.5
vt 0.5 0.3399390243902438
vt 0.75 0.3399390243902438
vt 0.75 0.496951219512195
vt 0.5 0.496951219512195
vt 0.5 0.6600609756097561
vt 0.75 0.6600609756097561
vt 0.75 0.8170731707317074
vt 0.5 0.8170731707317074
vt 0.3399390243902439 1
vt 0.3399390243902439 0.75
vt 0.4969512195121951 0.75
vt 0.4969512195121951 1
vt 0.4969512195121951 1
vt 0.4969512195121951 0.75
vt 0.8109756097560976 0.75
vt 0.8109756097560976 1
vt 0.8109756097560976 1
vt 0.8109756097560976 0.75
vt 1 0.75
vt 1 1
vt 0.5 0.75
vt 0.75 0.75
vt 0.75 1
vt 0.5 1
vt 0 1
vt 0 0.75
vt 0.18902439024390244 0.75
vt 0.18902439024390244 1
vt 0.18902439024390244 1
vt 0.18902439024390244 0.75
vt 0.503048780487805 0.75
vt 0.503048780487805 1
vt 0.503048780487805 1
vt 0.503048780487805 0.75
vt 0.6600609756097562 0.75
vt 0.6600609756097562 1
vt 0.6600609756097562 1
vt 0.6600609756097562 0.75
vt 0.8170731707317074 0.75
vt 0.8170731707317074 1
vt 0.8170731707317074 0.75
vt 0.9085365853658537 0.75
vt 0.9085365853658537 1
vt 0.8170731707317074 1
vt 0.5 1
vt 0.25 1
vt 0.25 0.75
vt 0.5 0.75
vt 0.18292682926829268 1
vt 0.09146341463414634 1
vt 0.09146341463414634 0.75
vt 0.18292682926829268 0.75
vt 0.18292682926829268 1
vt 0.18292682926829268 0.75
vt 0.3399390243902439 0.75
vt 0.3399390243902439 1
vt 0.5 0.18292682926829262
vt 0.75 0.18292682926829262
vt 0.75 0.3399390243902438
vt 0.5 0.3399390243902438
vt 0.5 0.496951219512195
vt 0.75 0.496951219512195
vt 0.75 0.8109756097560976
vt 0.5 0.8109756097560976
vt 0.5 0.8109756097560976
vt 0.25 0.8109756097560976
vt 0.25 0.496951219512195
vt 0.5 0.496951219512195
vt 0.5 1
vt 0.25 1
vt 0.25 0.8109756097560976
vt 0.5 0.8109756097560976
vt 0.5 0.75
vt 0.25 0.75
vt 0.25 0.5
vt 0.5 0.5
vt 0.5 1
vt 0.25 1
vt 0.25 0.75
vt 0.5 0.75
vt 0.5 0.18902439024390238
vt 0.25 0.18902439024390238
vt 0.25 0
vt 0.5 0
vt 0.5 0.5030487804878049
vt 0.25 0.5030487804878049
vt 0.25 0.18902439024390238
vt 0.5 0.18902439024390238
vt 0.5 0.6600609756097561
vt 0.25 0.6600609756097561
vt 0.25 0.5030487804878049
vt 0.5 0.5030487804878049
vt 0.5 0.8170731707317074
vt 0.25 0.8170731707317074
vt 0.25 0.6600609756097561
vt 0.5 0.6600609756097561
vt 0.5 0.9085365853658537
vt 0.25 0.9085365853658537
vt 0.25 0.8170731707317074
vt 0.5 0.8170731707317074
vt 0.5 0.75
vt 0.75 0.75
vt 0.75 1
vt 0.5 1
vt 0.5 0.5
vt 0.75 0.5
vt 0.75 0.75
vt 0.5 0.75
vt 0.5 0.18292682926829262
vt 0.25 0.18292682926829262
vt 0.25 0.09146341463414631
vt 0.5 0.09146341463414631
vt 0.5 0.3399390243902438
vt 0.25 0.3399390243902438
vt 0.25 0.18292682926829262
vt 0.5 0.18292682926829262
vt 0.5 0.496951219512195
vt 0.25 0.496951219512195
vt 0.25 0.3399390243902438
vt 0.5 0.3399390243902438
vt 0.5 0.9085365853658537
vt 0.75 0.9085365853658537
vt 0.75 1
vt 0.5 1
vt 1 1
vt 0.9085365853658537 1
vt 0.9085365853658537 0.75
vt 1 0.75
vt 1 0.75
vt 0.9085365853658537 0.75
vt 0.9085365853658537 0.5
vt 1 0.5
vt 0.5 0
vt 0.75 0
vt 0.75 0.09146341463414631
vt 0.5 0.09146341463414631
vt 0.5 0.09146341463414631
vt 0.25 0.09146341463414631
vt 0.25 0
vt 0.5 0
vt 0 0.5
vt 0.09146341463414634 0.5
vt 0.09146341463414634 0.75
vt 0 0.75
vt 0 0.75
vt 0.09146341463414634 0.75
vt 0.09146341463414634 1
vt 0 1
vt 0.5 1
vt 0.25 1
vt 0.25 0.9085365853658537
vt 0.5 0.9085365853658537
vt 1 0.496951219512195
vt 0.75 0.496951219512195
vt 0.75 0.3399390243902438
vt 1 0.3399390243902438
vt 1 0.18292682926829262
vt 0.75 0.18292682926829262
vt 0.75 0.09146341463414631
vt 1 0.09146341463414631
vt 1 0.09146341463414631
vt 0.75 0.09146341463414631
vt 0.75 0
vt 1 0
vt 0 0.5
vt 0.25 0.5
vt 0.25 0.75
vt 0 0.75
vt 0 0.75
vt 0.25 0.75
vt 0.25 1
vt 0 1
vt 1 1
vt 0.75 1
vt 0.75 0.9085365853658537
vt 1 0.9085365853658537
vt 1 0.9085365853658537
vt 0.75 0.9085365853658537
vt 0.75 0.8170731707317074
vt 1 0.8170731707317074
vt 1 0.8170731707317074
vt 0.75 0.8170731707317074
vt 0.75 0.6600609756097561
vt 1 0.6600609756097561
vt 1 0.6600609756097561
vt 0.75 0.6600609756097561
vt 0.75 0.5030487804878049
vt 1 0.5030487804878049
vt 1 0.5030487804878049
vt 0.75 0.5030487804878049
vt 0.75 0.18902439024390238
vt 1 0.18902439024390238
vt 1 0.18902439024390238
vt 0.75 0.18902439024390238
vt 0.75 0
vt 1 0
vt 1 1
vt 0.75 1
vt 0.75 0.75
vt 1 0.75
vt 1 0.75
vt 0.75 0.75
vt 0.75 0.5
vt 1 0.5
vt 1 1
vt 0.75 1
vt 0.75 0.8109756097560976
vt 1 0.8109756097560976
vt 0 0.8109756097560976
vt 0.25 0.8109756097560976
vt 0.25 1
vt 0 1
vt 0 0.5
vt 0.25 0.5
vt 0.25 0.75
vt 0 0.75
vt 0 0.75
vt 0.25 0.75
vt 0.25 1
vt 0 1
vt 0 0
vt 0.25 0
vt 0.25 0.18902439024390238
vt 0 0.18902439024390238
vt 0 0.18902439024390238
vt 0.25 0.18902439024390238
vt 0.25 0.5030487804878049
vt 0 0.5030487804878049
vt 0 0.5030487804878049
vt 0.25 0.5030487804878049
vt 0.25 0.6600609756097561
vt 0 0.6600609756097561
vt 0 0.6600609756097561
vt 0.25 0.6600609756097561
vt 0.25 0.8170731707317074
vt 0 0.8170731707317074
vt 0 0.8170731707317074
vt 0.25 0.8170731707317074
vt 0.25 0.9085365853658537
vt 0 0.9085365853658537
vt 0 0.9085365853658537
vt 0.25 0.9085365853658537
vt 0.25 1
vt 0 1
vt 1 1
vt 0.75 1
vt 0.75 0.75
vt 1 0.75
vt 1 0.75
vt 0.75 0.75
vt 0.75 0.5
vt 1 0.5
vt 0 0
vt 0.25 0
vt 0.25 0.09146341463414631
vt 0 0.09146341463414631
vt 0 0.09146341463414631
vt 0.25 0.09146341463414631
vt 0.25 0.18292682926829262
vt 0 0.18292682926829262
vt 0 0.875
vt 0 0.8125
vt 0.55859375 0.8125
vt 0.55859375 0.875
vt 0 1
vt 0.0625 0.74230625
vt 0.55859375 0.74230625
vt 0.55859375 1
vt 0 1
vt 0 0.6875
vt 0.25769375 0.6875
vt 0.30316875 0.9375
vt 0 0.9375
vt 0.0625 0.6875
vt 0.3125 0.6875
vt 0.3125 1
vt 0 0.875
vt 0 0.8125
vt 0.5546875 0.8125
vt 0.5546875 0.875
vt 0.4921875 0.75
vt 0.5546875 1
vt 0 1
vt 0 0.75
vt 0.25 0.6875
vt 0.25 0.9375
vt 0 1
vt 0 0.6875
vt 0.015162500000000023 0.9535500000000001
vt 0 0.6963
vt 0.25769375000000005 0.6963
vt 0.25769375000000005 1
vt 0 1
vt 0 -0.34822500000000023
vt 0.78125 -0.34822500000000023
vt 0.78125 1
vt 0 0.8643312500000002
vt 0 -0.20005624999999982
vt 0.78125 -0.3607249999999995
vt 0.78125 1
vn 0 0 -1
vn 0 1 0
vn 0 -1 0
vn 1 -4.752794219131105e-17 6.178632484870436e-16
vn -1 0 0
vn 0 1 0
vn 0.15776184090911674 0.07573604323193293 0.9845685620151282
vn 0 -1 0
vn 0.15821625358913471 0 -0.9874044850517031
vn 0 1 0
vn 0 1 0
vn 8.24765167935284e-16 0 -1
vn 0 -1 0
vn 0 1 0
vn 0 0 1
vn 0 0 1
vn 0.1582162535891346 0 0.9874044850517031
vn 1 5.2054412876197816e-17 6.767073673905716e-16
vn 0.15776184090911685 -0.07573604323193295 -0.9845685620151282
vn 0 0 -1
vn 8.24765167935284e-16 0 -1
vn 0 0 -1
vn 0 0 -1
vn -1 0 0
vn -0.04547054440782651 0 0.9989656798865795
vn -1.4649675010878466e-15 0 1
vn 0 -1 0
vn 0 -1 0
vn 0 -1 0
vn 0 -1 0
vn 1 0 0
vn 1 0 0
vn 0 1 0
vn 0 1 0
vn 0 1 0
vn 0 1 0
vn 0 1 0
vn -1 0 0
vn -1 0 0
vn 0 -1 0
vn 0 -1 0
vn 0 -1 0
vn 0 1 0
vn -0.04168340436271097 0 -0.999130869206199
vn -0.04168340436271097 0 -0.999130869206199
vn 0 -1 0
vn 0 -1 0
vn 0 0.07669649888473705 0.9970544855015816
vn 0 0 1
vn 0 1 0
vn 0 -1 0
vn 0 -1 0
vn 0 -1 0
vn -0.618616057400761 -0.060259935647743755 0.7833791634206696
vn -0.6197423034237195 0 0.7848053754575479
vn 0 1 0
vn 0 1 0
vn 0 1 0
vn 0 1 0
vn 0 1 0
vn 0 1 0
vn 0.985168731307841 -0.01316022770527548 -0.17108296016858124
vn 0.985168731307841 0.01316022770527548 -0.17108296016858124
vn 0 -1 0
vn 0 -1 0
vn 0.985168731307841 0.01316022770527548 0.17108296016858124
vn 0.985168731307841 -0.01316022770527548 0.17108296016858124
vn 0 1 0
vn 0 1 0
vn 0 1 0
vn 0 1 0
vn 0 1 0
vn 0 1 0
vn -0.6393837527463921 0 -0.7688877790184602
vn -0.6393837527463921 0 -0.7688877790184602
vn 0 -1 0
vn 0 -1 0
vn 0 -0.9864365473432042 0.16414304147790942
vn 0 0.2877702727018778 0.9576994675518449
vn 0.9852540538619626 0 0.1710977771584681
vn -1 0 0
vn 0 -0.979045530874048 0.2036414704218021
vn 0 0 1
vn 1 0 2.842170943040401e-16
vn -0.9650589788446562 0.20143116584703202 0.16759072998473065
vn 0 -1 0
vn 0 -1 0
usemtl none
f 1/1/1 2/2/1 3/3/1 4/4/1
f 5/5/2 6/6/2 7/7/2 8/8/2
f 9/9/3 10/10/3 11/11/3 12/12/3
f 13/13/4 14/14/4 15/15/4 16/16/4
f 17/17/5 18/18/5 19/19/5 20/20/5
f 21/21/6 22/22/6 23/23/6 24/24/6
f 25/25/7 26/26/7 27/27/7 28/28/7
f 29/29/8 30/30/8 14/31/8 13/32/8
f 31/33/9 32/34/9 33/35/9 34/36/9
f 24/37/10 23/38/10 35/39/10 36/40/10
f 36/41/11 35/42/11 37/43/11 38/44/11
f 39/45/12 40/46/12 41/47/12 42/48/12
f 43/49/13 44/50/13 45/51/13 46/52/13
f 38/53/14 37/54/14 6/55/14 5/56/14
f 47/57/15 48/58/15 49/59/15 50/60/15
f 50/61/16 49/62/16 27/63/16 51/64/16
f 51/65/17 27/66/17 26/67/17 52/68/17
f 16/69/18 15/70/18 22/71/18 21/72/18
f 53/73/19 33/74/19 32/75/19 54/76/19
f 54/77/20 32/78/20 41/79/20 55/80/20
f 55/81/21 41/82/21 40/83/21 56/84/21
f 56/85/22 40/86/22 4/87/22 57/88/22
f 4/89/23 3/90/23 58/91/23 57/92/23
f 59/93/24 60/94/24 18/95/24 17/96/24
f 61/97/25 62/98/25 63/99/25 64/100/25
f 61/101/26 64/102/26 48/103/26 47/104/26
f 12/105/27 11/106/27 44/107/27 43/108/27
f 46/109/28 45/110/28 30/111/28 29/112/28
f 29/113/29 65/114/29 66/115/29 46/116/29
f 13/117/30 67/118/30 65/119/30 29/120/30
f 16/121/31 68/122/31 67/123/31 13/124/31
f 21/125/32 69/126/32 68/127/32 16/128/32
f 24/129/33 70/130/33 69/131/33 21/132/33
f 36/133/34 71/134/34 70/135/34 24/136/34
f 38/137/35 72/138/35 71/139/35 36/140/35
f 5/141/36 73/142/36 72/143/36 38/144/36
f 8/145/37 74/146/37 73/147/37 5/148/37
f 17/149/38 75/150/38 76/151/38 59/152/38
f 20/153/39 77/154/39 75/155/39 17/156/39
f 12/157/40 78/158/40 79/159/40 9/160/40
f 43/161/41 80/162/41 78/163/41 12/164/41
f 46/165/42 66/166/42 80/167/42 43/168/42
f 8/169/43 7/170/43 60/171/43 59/172/43
f 81/173/44 58/174/44 3/175/44 82/176/44
f 82/177/45 3/178/45 2/179/45 83/180/45
f 20/181/46 19/182/46 10/183/46 9/184/46
f 9/185/47 79/186/47 77/187/47 20/188/47
f 84/189/48 85/190/48 63/191/48 86/192/48
f 86/193/49 63/194/49 62/195/49 87/196/49
f 59/197/50 76/198/50 74/199/50 8/200/50
f 42/201/51 45/202/51 44/203/51 39/204/51
f 1/205/52 11/206/52 10/207/52 2/208/52
f 2/209/53 10/210/53 19/211/53 83/212/53
f 83/213/54 19/214/54 18/215/54 82/216/54
f 82/217/55 18/218/55 60/219/55 81/220/55
f 81/221/56 60/222/56 7/223/56 58/224/56
f 58/225/57 7/226/57 6/227/57 57/228/57
f 57/229/58 6/230/58 37/231/58 56/232/58
f 56/233/59 37/234/59 35/235/59 55/236/59
f 55/237/60 35/238/60 23/239/60 54/240/60
f 54/241/61 23/242/61 22/243/61 53/244/61
f 53/245/62 22/246/62 15/247/62 33/248/62
f 33/249/63 15/250/63 14/251/63 34/252/63
f 34/253/64 14/254/64 30/255/64 31/256/64
f 28/257/65 65/258/65 67/259/65 25/260/65
f 25/261/66 67/262/66 68/263/66 26/264/66
f 26/265/67 68/266/67 69/267/67 52/268/67
f 52/269/68 69/270/68 70/271/68 51/272/68
f 51/273/69 70/274/69 71/275/69 50/276/69
f 50/277/70 71/278/70 72/279/70 47/280/70
f 47/281/71 72/282/71 73/283/71 61/284/71
f 61/285/72 73/286/72 74/287/72 62/288/72
f 62/289/73 74/290/73 76/291/73 87/292/73
f 87/293/74 76/294/74 75/295/74 86/296/74
f 86/297/75 75/298/75 77/299/75 84/300/75
f 84/301/76 77/302/76 79/303/76 85/304/76
f 85/305/77 79/306/77 78/307/77 88/308/77
f 64/309/78 89/310/78 90/311/78 48/312/78
f 89/313/79 78/314/79 80/315/79 90/316/79
f 64/317/80 88/318/80 78/319/80 89/320/80
f 90/321/81 80/322/81 91/323/81 48/324/81
f 49/325/82 92/326/82 93/327/82 27/328/82
f 65/329/83 93/330/83 92/331/83 66/332/83
f 66/333/84 92/334/84 49/335/84 94/336/84
f 93/337/85 65/338/85 28/339/85 27/340/85
f 94/341/86 91/342/86 80/343/86 66/344/86
f 44/345/87 11/346/87 1/347/87 39/348/87